<svg width="10" height="10" viewBox="0 0 10 10" fill="currentColor" xmlns="http://www.w3.org/2000/svg">
<path fill-rule="evenodd" clip-rule="evenodd" d="M8.9827 0.419922C9.54427 0.419922 9.99951 0.871405 9.99951 1.42834V8.99145C9.99951 9.54838 9.54427 9.99987 8.9827 9.99987H1.35661C0.795041 9.99987 0.339799 9.54838 0.339799 8.99145C0.339799 8.43452 0.795041 7.98304 1.35661 7.98304H7.96589V1.42834C7.96589 0.871405 8.42113 0.419922 8.9827 0.419922Z" fill="#FFF1EE"/>
<path fill-rule="evenodd" clip-rule="evenodd" d="M0.295356 0.295355C0.689163 -0.0984518 1.32765 -0.0984516 1.72146 0.295355L9.70465 8.27855C10.0985 8.67235 10.0985 9.31084 9.70464 9.70465C9.31084 10.0985 8.67235 10.0985 8.27854 9.70465L0.295355 1.72146C-0.0984519 1.32765 -0.0984516 0.689161 0.295356 0.295355Z" fill="#FFF1EE"/>
</svg>
