<svg width="19" height="18" viewBox="0 0 19 18" fill="currentColor" xmlns="http://www.w3.org/2000/svg">
<path d="M10.0416 6.89908L16.2113 7.97335L17.1011 8.63827C17.1795 8.69681 17.2228 8.78331 17.2228 8.88117C17.2228 8.92661 17.2127 8.96898 17.1948 9.00743L9.80087 7.71953L7.6413 8.82132V7.86719L9.19511 7.07471L7.6413 3.17519V1.93447C7.6413 1.83355 7.72403 1.75142 7.82557 1.75142C7.86409 1.75142 7.89954 1.76365 7.93281 1.78855L8.03522 1.86501L10.0412 6.89908H10.0416ZM2.29402 10.5955L1.8095 11.5601C1.77054 11.6378 1.76792 11.7256 1.79724 11.803L5.817 9.75229V8.79773L2.29402 10.595V10.5955ZM7.79012 17.6872L17.8675 10.1433C18.2693 9.84229 18.5 9.38227 18.5 8.88074C18.5 8.37921 18.2693 7.91918 17.8675 7.61817L8.11313 0.315858C7.83695 0.109218 7.50956 0 7.16597 0C7.04385 0 6.92174 0.0144168 6.80225 0.0423766C6.34486 0.149847 5.96188 0.451726 5.75135 0.871123L0.668433 10.9886C0.361611 11.599 0.481538 12.3329 0.966501 12.8148L5.72684 17.5435C6.02316 17.8379 6.42014 18 6.8447 18C7.19048 18 7.51787 17.8921 7.79099 17.6872H7.79012ZM8.26151 1.35125L17.4298 8.2014C17.6465 8.36348 17.7704 8.61119 17.7704 8.88117C17.7704 9.15116 17.6461 9.39886 17.4298 9.56094L8.26195 16.4238C8.13371 16.5194 7.98314 16.5701 7.82601 16.5701C7.42246 16.5701 7.09419 16.2429 7.09419 15.841V1.93403C7.09419 1.53211 7.42246 1.20489 7.82601 1.20489C7.9827 1.20489 8.13327 1.25557 8.26151 1.35125ZM6.36455 4.35212V15.3976C6.36455 15.7999 6.03541 16.1271 5.63142 16.1271C5.44015 16.1271 5.25851 16.0516 5.1202 15.9139L1.48079 12.2988C1.21949 12.0393 1.15515 11.6444 1.32016 11.3154L4.98232 4.02578C5.10882 3.7737 5.35042 3.62298 5.62879 3.62298C5.99033 3.62298 6.36412 3.89559 6.36412 4.35212H6.36455Z" fill="#FFF1EE"/>
</svg>
